<svg viewBox="0 0 32 32" xmlns="http://www.w3.org/2000/svg" role="img" aria-label=":JF — Jonas Fiers">
  <rect width="32" height="32" rx="6" fill="#12172B"/>
  <g transform="translate(16 16) scale(0.0175 -0.0175) translate(-705.0 -330.0)">
    <path d="M200 313L20 313L20 484L200 484ZM200 0L20 0L20 171L200 171Z" transform="translate(0.0 0)" fill="#E8437E"/>
    <path d="M304 -10Q202 -10 127 36.5Q52 83 10 185L160 314Q174 252 207.5 208Q241 164 299 164Q323 164 342 172.5Q361 181 372 202Q383 223 383 261L383 670L563 670L563 241Q563 151 529.5 95.5Q496 40 438 15Q380 -10 304 -10Z" transform="translate(224.0 0)" fill="#EDEFF7"/>
    <path d="M220 0L40 0L40 670L220 670ZM498 233L103 233L103 393L498 393ZM548 510L103 510L103 670L548 670Z" transform="translate(842.0 0)" fill="#EDEFF7"/>
  </g>
</svg>
